<svg version="1.1" xmlns="http://www.w3.org/2000/svg" style="display: block;" viewBox="0 0 2048 2048" width="512" height="512">
<defs>
	<linearGradient id="Gradient1" gradientUnits="userSpaceOnUse" x1="1750.22" y1="1280.52" x2="1688.17" y2="1100.73">
		<stop class="stop0" offset="0" stop-opacity="1" stop-color="rgb(76,37,28)"/>
		<stop class="stop1" offset="1" stop-opacity="1" stop-color="rgb(136,78,47)"/>
	</linearGradient>
</defs>
<path transform="translate(0,0)" fill="rgb(130,70,41)" d="M 1702.7 1565.1 C 1743.91 1563.47 1755.06 1615.34 1715.14 1627.03 C 1673.14 1628.41 1663.78 1578.13 1702.7 1565.1 z"/>
<path transform="translate(0,0)" fill="rgb(93,45,26)" d="M 1456.43 971.399 C 1497.12 965.436 1506.39 1016.02 1467.64 1032.15 C 1423.31 1033.54 1415.22 978.275 1456.43 971.399 z"/>
<path transform="translate(0,0)" fill="rgb(93,45,26)" d="M 284.856 753.133 C 327.118 748.836 338.698 798.633 301.827 814.574 C 258.815 819.005 245.188 767.394 284.856 753.133 z"/>
<path transform="translate(0,0)" fill="rgb(130,70,41)" d="M 872.596 283.079 C 904.744 281.939 923.08 327.783 877.416 349.187 C 834.678 345 828.748 293.943 872.596 283.079 z"/>
<path transform="translate(0,0)" fill="rgb(67,28,21)" d="M 407.275 349.187 C 447.387 347.057 453.285 402.76 415.487 412.919 C 373.453 415.723 364.374 358.462 407.275 349.187 z"/>
<path transform="translate(0,0)" fill="rgb(93,45,26)" d="M 587.702 1129.32 C 629.113 1124.64 639.121 1181.15 600.204 1192.2 C 561.881 1200.96 546.374 1141.56 587.702 1129.32 z"/>
<path transform="translate(0,0)" fill="rgb(93,45,26)" d="M 348.47 584.447 C 389.332 584.734 393.534 642.142 351.544 647.977 C 308.795 649.453 307.588 588.34 348.47 584.447 z"/>
<path transform="translate(0,0)" fill="rgb(93,45,26)" d="M 1686.84 581.172 C 1726.61 578.651 1738.8 629.96 1695.27 647.977 C 1652.45 645.788 1645.54 593.497 1686.84 581.172 z"/>
<path transform="translate(0,0)" fill="rgb(93,45,26)" d="M 1282.21 189.346 C 1317.7 186.629 1332 238.328 1285.98 257.879 C 1244.25 247.69 1237.68 196.242 1282.21 189.346 z"/>
<path transform="translate(0,0)" fill="rgb(93,45,26)" d="M 1253.59 1763.36 C 1282.23 1758.17 1305.07 1820.09 1253.59 1827.74 C 1211.07 1827.99 1204.66 1769.23 1253.59 1763.36 z"/>
<path transform="translate(0,0)" fill="rgb(93,45,26)" d="M 1467.64 1693.05 C 1513.35 1691.38 1520.4 1745.09 1476.79 1757.42 C 1431.61 1760.27 1425.82 1706.03 1467.64 1693.05 z"/>
<path transform="translate(0,0)" fill="rgb(67,28,21)" d="M 415.487 1050.12 C 454.386 1102.4 436.647 1181.2 358.453 1167.09 C 323.466 1160.78 285.379 1136.47 270.651 1103 L 272.25 1101.7 C 278.113 1103.64 285.611 1113.78 290.994 1117.73 C 320.115 1139.1 366.561 1145.6 395.716 1120.5 C 426.844 1093.7 407.655 1060.53 415.487 1050.12 z"/>
<path transform="translate(0,0)" fill="rgb(67,28,21)" d="M 240.439 1397.58 C 249.33 1393.18 257.711 1417.91 270.604 1427.27 C 308.737 1454.96 391.036 1454.38 398.929 1400.44 C 400.003 1393.1 396.419 1377.81 400.23 1372.47 C 444.73 1426.86 409.163 1490.8 341.216 1481 C 296.087 1474.5 255.645 1440.4 240.439 1397.58 z"/>
<path transform="translate(0,0)" fill="rgb(67,28,21)" d="M 1682.17 784.42 C 1702.59 790 1716.35 801.074 1726.89 819.46 C 1771.56 897.32 1630.86 1021.37 1566.98 932.712 L 1569.05 930.42 C 1573.64 929.11 1586.97 933.673 1593.38 933.803 C 1633.26 934.615 1714.93 860.23 1691.78 807.626 C 1688.32 799.769 1681.36 793.609 1682.17 784.42 z"/>
<path transform="translate(0,0)" fill="rgb(130,70,41)" d="M 1566.98 932.712 C 1529.64 869.17 1602.85 779.369 1682.17 784.42 C 1681.36 793.609 1688.32 799.769 1691.78 807.626 C 1714.93 860.23 1633.26 934.615 1593.38 933.803 C 1586.97 933.673 1573.64 929.11 1569.05 930.42 L 1566.98 932.712 z"/>
<path transform="translate(0,0)" fill="rgb(93,45,26)" d="M 1600.24 901.512 C 1601.27 907.622 1600.26 913.222 1600.24 919.299 L 1588.79 921.805 C 1591.79 914.317 1595.32 907.899 1600.24 901.512 z"/>
<path transform="translate(0,0)" fill="rgb(67,28,21)" d="M 1600.24 901.512 C 1621.35 866.956 1623.11 852.276 1661.62 830.259 C 1675.76 822.174 1690.72 811.685 1687.1 835.944 C 1681.11 876.058 1637.93 910.876 1600.24 919.299 C 1600.26 913.222 1601.27 907.622 1600.24 901.512 z"/>
<path transform="translate(0,0)" fill="rgb(130,70,41)" d="M 270.651 1319.61 C 317.099 1302.24 378.845 1327.39 400.23 1372.47 C 396.419 1377.81 400.003 1393.1 398.929 1400.44 C 391.036 1454.38 308.737 1454.96 270.604 1427.27 C 257.711 1417.91 249.33 1393.18 240.439 1397.58 C 233.117 1372.74 234.995 1346.74 255.247 1328.6 C 260.241 1324.93 265.083 1322.29 270.651 1319.61 z"/>
<path transform="translate(0,0)" fill="rgb(67,28,21)" d="M 255.247 1328.6 C 260.241 1324.93 265.083 1322.29 270.651 1319.61 C 293.449 1345.05 370.543 1387.05 368.747 1415.28 C 368.424 1420.36 364.836 1425.71 362.49 1430.14 C 327.14 1421.88 252.95 1372.14 255.247 1328.6 z"/>
<path transform="translate(0,0)" fill="rgb(130,70,41)" d="M 284.856 1009.14 C 322.307 979.977 393.334 1017.69 415.487 1050.12 C 407.655 1060.53 426.844 1093.7 395.716 1120.5 C 366.561 1145.6 320.115 1139.1 290.994 1117.73 C 285.611 1113.78 278.113 1103.64 272.25 1101.7 L 270.651 1103 C 247.607 1084.11 251.939 1034.39 275.99 1013.51 L 284.856 1009.14 z"/>
<path transform="translate(0,0)" fill="rgb(67,28,21)" d="M 284.856 1009.14 C 288.817 1012.06 294.154 1010.54 298.375 1012.82 C 315.425 1022.06 369.58 1067.23 379.424 1079.88 C 390.1 1093.6 408.908 1128.94 374.086 1118.46 C 365.209 1115.78 357.538 1106.52 350.394 1100.76 C 321.591 1077.53 280.708 1054.08 275.99 1013.51 L 284.856 1009.14 z"/>
<path transform="translate(0,0)" fill="rgb(67,28,21)" d="M 1005.57 510.075 C 959.936 464.415 1037.7 350.216 1113.95 359.352 C 1129.21 361.18 1144.14 366.422 1153.88 378.73 C 1231.72 460.263 1050.19 599.273 1005.57 510.075 z"/>
<path transform="translate(0,0)" fill="rgb(130,70,41)" d="M 1005.57 510.075 C 959.936 464.415 1037.7 350.216 1113.95 359.352 C 1129.21 361.18 1144.14 366.422 1153.88 378.73 C 1148.34 389.471 1151.15 402.185 1146.82 413.283 C 1129.81 456.976 1078.14 506.756 1030.34 515.837 C 1040.84 509.065 1052.9 505.018 1063.05 497.703 C 1096.72 473.43 1144.26 422.383 1147.48 378.73 C 1086.69 398.479 1028.43 450.9 1016.97 515.837 C 1014.1 513.43 1009.12 506.986 1005.57 510.075 z"/>
<path transform="translate(0,0)" fill="rgb(67,28,21)" d="M 954.843 1627.03 C 983.906 1598.81 1045.98 1616.54 1069.01 1644.13 C 1122.18 1680.96 1134.45 1775.93 1055.46 1788.98 C 1009.93 1796.5 956.748 1764.17 940.83 1720.95 C 922.384 1702.52 925.173 1658.86 940.83 1640.14 C 945.058 1634.09 948.159 1630.33 954.843 1627.03 z"/>
<path transform="translate(0,0)" fill="rgb(130,70,41)" d="M 954.843 1627.03 C 983.906 1598.81 1045.98 1616.54 1069.01 1644.13 C 1073.86 1667.03 1093.64 1697.59 1078.42 1724.76 C 1076.52 1725.07 1077.37 1725.32 1075.94 1723.84 C 1054.25 1701.48 984.255 1632.44 956.16 1627.26 L 954.843 1627.03 z"/>
<path transform="translate(0,0)" fill="rgb(130,70,41)" d="M 940.83 1640.14 C 947.065 1661.47 1038.68 1732.63 1065.52 1745 C 1030.53 1765.65 990.091 1756.93 958.942 1733.21 C 955.438 1730.54 943.929 1714.48 940.83 1720.95 C 922.384 1702.52 925.173 1658.86 940.83 1640.14 z"/>
<path transform="translate(0,0)" fill="url(#Gradient1)" d="M 1655.34 1112.66 C 1717.42 1073.79 1831.14 1161.74 1813.18 1230.03 C 1802.43 1270.88 1761.65 1288.2 1722.83 1277.05 C 1662.54 1259.74 1592.96 1184.11 1641.7 1125.09 C 1645.83 1120.38 1650.5 1116.6 1655.34 1112.66 z"/>
<path transform="translate(0,0)" fill="rgb(67,28,21)" d="M 1655.34 1112.66 C 1659.35 1116.01 1664.71 1116.71 1668.92 1119.79 C 1688.31 1133.95 1706.11 1151.01 1724.66 1166.28 C 1732.89 1173.05 1791.28 1211.19 1754.19 1221.64 C 1730.95 1228.19 1669.31 1166.08 1652.77 1145.16 C 1648.35 1139.57 1646.69 1129.09 1641.7 1125.09 C 1645.83 1120.38 1650.5 1116.6 1655.34 1112.66 z"/>
<path transform="translate(0,0)" fill="rgb(213,132,58)" d="M 1486.18 235.115 C 1495.07 243.059 1503.8 251.038 1513.59 257.879 C 1494.57 277.868 1477.88 300.854 1460.69 322.449 L 557.096 1455.78 C 496.231 1532.37 432.769 1607.24 373.413 1684.98 C 365.018 1677.38 356.686 1669.74 348.47 1661.95 C 356.844 1645.52 371.588 1630.2 383.132 1615.73 L 1375.31 373.374 C 1412.4 327.41 1448.7 280.783 1486.18 235.115 z"/>
<path transform="translate(0,0)" fill="rgb(241,185,106)" d="M 1269.25 1094.32 C 1311.04 1087.25 1347.83 1089.06 1387.83 1103 C 1297.75 1152.04 1223.85 1215.62 1154.24 1290.59 C 1144.6 1300.97 1124.43 1319.17 1120.79 1332.36 C 1116.85 1346.66 1149.74 1393.97 1161.52 1408.1 C 1143.52 1421.5 1096.89 1474.11 1145.91 1476.08 C 1163.77 1476.8 1173.95 1453.23 1184.54 1442.16 C 1195.55 1460.39 1203.08 1480.27 1216.93 1496.73 C 1208.74 1505.21 1192.85 1519.02 1193.19 1531.65 C 1193.9 1557.84 1222.6 1555.35 1240.71 1537.03 C 1247.5 1540.4 1254.26 1544.01 1261.18 1547.1 C 1253.62 1557.72 1237.98 1570.97 1240.57 1585.23 C 1242.89 1597.97 1258.19 1605.12 1270 1601.7 C 1283.7 1597.73 1303.18 1568.83 1309.1 1554.74 L 1309.44 1553.95 C 1373.1 1555.05 1395.35 1517.84 1427.78 1470.94 C 1462.7 1420.45 1500.38 1393.61 1557.65 1372.47 C 1556.18 1417.8 1541.66 1498.76 1513.59 1537.03 C 1477.08 1607.27 1416.74 1634.22 1346.04 1655.06 C 1290.43 1655.7 1249.88 1654.72 1199.75 1626.17 C 1074.07 1554.6 1030.48 1359.88 1100.23 1238.81 C 1128.56 1168.06 1196.12 1112.45 1269.25 1094.32 z"/>
<path transform="translate(0,0)" fill="rgb(93,45,26)" d="M 1346.04 1655.06 C 1349.66 1631.97 1441.01 1520.98 1464.54 1517.6 C 1484.24 1514.78 1499.02 1525.53 1513.59 1537.03 C 1477.08 1607.27 1416.74 1634.22 1346.04 1655.06 z"/>
<path transform="translate(0,0)" fill="rgb(93,45,26)" d="M 1269.25 1094.32 C 1271.76 1101.7 1260.87 1123.25 1257.63 1129.89 C 1234.52 1177.35 1156.82 1247.61 1100.23 1238.81 C 1128.56 1168.06 1196.12 1112.45 1269.25 1094.32 z"/>
<path transform="translate(0,0)" fill="rgb(241,185,106)" d="M 680.249 465.727 C 722.877 457.763 766.019 458.63 806.566 474.872 C 745.556 499.413 717.156 546.55 669.5 587.955 C 639.341 614.159 528.049 674.326 548.061 725.105 C 556.498 746.513 580.089 743.335 591.472 765.572 C 578.944 779.863 546.857 795.836 547.304 817.037 C 547.547 828.541 557.073 840.879 569.523 839.111 C 584.993 836.914 596.48 819.309 608.997 810.975 C 616.131 831.73 624.806 851.994 633.058 872.325 C 614.88 897.06 604.018 915.815 640.755 929.432 C 652.399 924.288 659.723 917.612 667.487 907.652 L 686.808 919.299 C 679.924 929.226 664.036 940.961 666.399 954.18 C 668.679 966.931 683.586 974.225 695.501 971.11 C 711.099 967.034 723.448 942.281 731.297 929.432 C 788.764 922.057 814.579 895.144 838.713 846.545 C 860.3 803.077 916.009 740.611 969.738 746.635 C 970.935 796.586 949.161 890.617 914.274 929.432 C 868.791 976.316 844.686 1001.74 778.562 1020.34 C 718.908 1039.43 636.074 1013.53 588.51 975.938 C 474.513 885.849 453.539 680.12 542.389 568.204 C 562.269 519.894 630.821 472.111 680.249 465.727 z"/>
<path transform="translate(0,0)" fill="rgb(93,45,26)" d="M 778.562 1020.34 C 778.778 976.541 797.518 962.836 825.598 933.723 C 855.248 902.982 910.181 843.647 914.274 929.432 C 868.791 976.316 844.686 1001.74 778.562 1020.34 z"/>
<path transform="translate(0,0)" fill="rgb(93,45,26)" d="M 542.389 568.204 C 562.269 519.894 630.821 472.111 680.249 465.727 C 686.069 473.306 691.635 480.313 690.046 490.499 C 685.736 518.133 575.817 636.516 546.112 591.373 C 541.217 583.934 543.235 576.418 542.389 568.204 z"/>
<path transform="translate(0,0)" fill="rgb(93,45,26)" d="M 806.566 474.872 C 924.435 506.289 968.944 636.984 969.738 746.635 C 916.009 740.611 860.3 803.077 838.713 846.545 C 814.579 895.144 788.764 922.057 731.297 929.432 C 723.448 942.281 711.099 967.034 695.501 971.11 C 683.586 974.225 668.679 966.931 666.399 954.18 C 664.036 940.961 679.924 929.226 686.808 919.299 L 667.487 907.652 C 659.723 917.612 652.399 924.288 640.755 929.432 C 604.018 915.815 614.88 897.06 633.058 872.325 C 624.806 851.994 616.131 831.73 608.997 810.975 C 596.48 819.309 584.993 836.914 569.523 839.111 C 557.073 840.879 547.547 828.541 547.304 817.037 C 546.857 795.836 578.944 779.863 591.472 765.572 C 580.089 743.335 556.498 746.513 548.061 725.105 C 528.049 674.326 639.341 614.159 669.5 587.955 C 717.156 546.55 745.556 499.413 806.566 474.872 z M 727.253 614.18 C 641.556 632.429 647.542 883.001 739.162 872.325 C 824.145 849.597 816.949 601.53 727.253 614.18 z"/>
<path transform="translate(0,0)" fill="rgb(93,45,26)" d="M 1161.52 1408.1 C 1149.74 1393.97 1116.85 1346.66 1120.79 1332.36 C 1124.43 1319.17 1144.6 1300.97 1154.24 1290.59 C 1223.85 1215.62 1297.75 1152.04 1387.83 1103 C 1500.8 1140.27 1554.53 1261.13 1557.65 1372.47 C 1500.38 1393.61 1462.7 1420.45 1427.78 1470.94 C 1395.35 1517.84 1373.1 1555.05 1309.44 1553.95 L 1309.1 1554.74 C 1303.18 1568.83 1283.7 1597.73 1270 1601.7 C 1258.19 1605.12 1242.89 1597.97 1240.57 1585.23 C 1237.98 1570.97 1253.62 1557.72 1261.18 1547.1 C 1254.26 1544.01 1247.5 1540.4 1240.71 1537.03 C 1222.6 1555.35 1193.9 1557.84 1193.19 1531.65 C 1192.85 1519.02 1208.74 1505.21 1216.93 1496.73 C 1203.08 1480.27 1195.55 1460.39 1184.54 1442.16 C 1173.95 1453.23 1163.77 1476.8 1145.91 1476.08 C 1096.89 1474.11 1143.52 1421.5 1161.52 1408.1 z M 1304.54 1235.13 C 1230.43 1255.37 1241.05 1392.31 1256.16 1446.49 C 1265.61 1480.37 1286.03 1505.14 1323.47 1500.66 C 1341 1495.2 1352.74 1485.37 1361.31 1469.11 C 1387.07 1420.26 1399.2 1225.09 1304.54 1235.13 z"/>
<path transform="translate(0,0)" fill="rgb(241,185,106)" d="M 1513.59 257.879 C 1532.05 287.305 1597.72 334.322 1625.41 364.151 C 1649.73 386.027 1675.51 407.261 1698.71 430.239 C 1672.23 464.805 1643.52 497.706 1616.22 531.63 L 590.665 1807 C 580.339 1819.76 570.555 1834.87 558.63 1846.08 C 536.372 1824.4 512.359 1802.96 488.013 1783.68 C 450.682 1749.67 411.054 1718.58 373.413 1684.98 C 432.769 1607.24 496.231 1532.37 557.096 1455.78 L 1460.69 322.449 C 1477.88 300.854 1494.57 277.868 1513.59 257.879 z"/>
<path transform="translate(0,0)" fill="rgb(130,70,41)" d="M 529.798 1730.24 C 522.877 1724.4 511.745 1717.04 510.06 1707.59 C 505.229 1680.5 533.144 1686.74 549.228 1698.58 C 579.924 1727.71 562.199 1757.31 529.798 1730.24 z"/>
<path transform="translate(0,0)" fill="rgb(93,45,26)" d="M 863.648 1301.75 C 855.715 1295.04 840.092 1283.66 839.517 1272.52 C 839.002 1262.52 849.267 1253.76 858.811 1253.72 C 869.85 1253.67 880.193 1266.02 887.534 1273.25 C 894.105 1280.11 904.465 1288.61 903.935 1298.97 C 902.471 1327.6 875.815 1312.36 863.648 1301.75 z"/>
<path transform="translate(0,0)" fill="rgb(93,45,26)" d="M 758.745 1430.14 C 745.818 1419.12 712.48 1382.66 751.44 1381.23 C 764.458 1380.75 774.012 1392.97 782.542 1401.21 C 817.416 1432.87 788.978 1459.54 758.745 1430.14 z"/>
<path transform="translate(0,0)" fill="rgb(93,45,26)" d="M 618.473 1608.84 C 610.281 1599.69 595.763 1592.65 594.031 1579.38 C 589.604 1545.43 625.411 1563.01 640.755 1577.28 C 679.264 1614.81 652.673 1638.36 618.473 1608.84 z"/>
<path transform="translate(0,0)" fill="rgb(93,45,26)" d="M 1470.4 537.019 C 1430.6 500.279 1455.78 469.432 1500.68 510.075 C 1515.97 524.355 1534.27 554.945 1499.76 555.21 C 1488.98 555.293 1478.16 543.658 1470.4 537.019 z"/>
<path transform="translate(0,0)" fill="rgb(93,45,26)" d="M 1100.23 1001.86 C 1090.24 994.943 1074.06 986.084 1072.44 973.13 C 1071.16 962.969 1078.59 951.151 1089.44 950.639 C 1101.13 950.088 1112.18 963.859 1119.86 971.399 C 1128.47 979.747 1142.81 990.158 1142.77 1003.28 C 1142.68 1026.2 1114.06 1021.01 1100.23 1001.86 z"/>
<path transform="translate(0,0)" fill="rgb(93,45,26)" d="M 1235.86 828.226 C 1224.87 817.392 1186.8 778.599 1230.57 776.959 C 1243.72 776.466 1252.5 789.715 1261.18 797.871 C 1300.76 836.943 1271.19 862.919 1235.86 828.226 z"/>
<path transform="translate(0,0)" fill="rgb(93,45,26)" d="M 1374.74 656.653 L 1373.36 655.477 C 1324.18 613.192 1358.4 583.339 1399.04 624.478 C 1406.88 632.647 1420.44 644.219 1420.16 656.325 C 1419.5 685.513 1387.49 668.371 1374.74 656.653 z"/>
<path transform="translate(0,0)" fill="rgb(213,132,58)" d="M 1625.41 364.151 C 1649.73 386.027 1675.51 407.261 1698.71 430.239 C 1672.23 464.805 1643.52 497.706 1616.22 531.63 L 590.665 1807 C 580.339 1819.76 570.555 1834.87 558.63 1846.08 C 536.372 1824.4 512.359 1802.96 488.013 1783.68 C 493.474 1772.51 520.386 1741.22 529.798 1730.24 C 562.199 1757.31 579.924 1727.71 549.228 1698.58 C 556.224 1690.26 571.619 1676.57 575.829 1668.14 C 570.673 1652.36 577.338 1638.69 594.868 1640.14 C 602.908 1630.03 611.719 1619.84 618.473 1608.84 C 652.673 1638.36 679.264 1614.81 640.755 1577.28 C 649.085 1566.59 656.738 1555.51 667.487 1547.1 C 660.302 1529.62 669.995 1522.06 686.808 1523.17 C 692.955 1511.41 705.58 1497.93 715.164 1488.64 C 712.04 1474.35 716.231 1465.49 731.297 1464.21 C 741.468 1454.84 750.374 1441.29 758.745 1430.14 C 788.978 1459.54 817.416 1432.87 782.542 1401.21 C 793.485 1387.09 804.195 1372.14 816.922 1359.55 C 814.504 1346.52 821.563 1340.4 834.258 1338.57 C 842.646 1325.3 853.089 1313.32 863.648 1301.75 C 875.815 1312.36 902.471 1327.6 903.935 1298.97 C 904.465 1288.61 894.105 1280.11 887.534 1273.25 C 897.47 1263.41 906.543 1250.48 914.274 1238.81 C 909.232 1223.29 919.406 1211.36 935.088 1212.25 C 941.533 1200.56 954.103 1189.13 963.186 1179.27 C 958.008 1163.06 964.847 1152.94 981.799 1152.65 C 988.366 1142.7 996.527 1132.88 1005.57 1125.09 C 997.594 1115.47 985.952 1106.12 985.087 1092.77 C 983.396 1066.68 1012.01 1073.62 1027.31 1090.53 C 1037.2 1081.24 1046.23 1068.86 1054.38 1057.97 C 1052.77 1043.82 1059.86 1032.96 1074.54 1032.15 C 1081.56 1021.02 1090.65 1010.81 1100.23 1001.86 C 1114.06 1021.01 1142.68 1026.2 1142.77 1003.28 C 1142.81 990.158 1128.47 979.747 1119.86 971.399 C 1129.53 962.543 1139.36 950.281 1147.48 939.932 C 1149.41 930.665 1154.81 925.385 1161.52 919.299 C 1172.43 905.356 1183.73 891.688 1194.38 877.545 C 1197.69 869.511 1201.51 865.544 1207.93 860.025 C 1217.56 849.778 1226.26 838.564 1235.86 828.226 C 1271.19 862.919 1300.76 836.943 1261.18 797.871 C 1268.34 789.698 1281.04 774.667 1285.98 765.572 C 1288.78 754.731 1293.76 750.35 1304.54 746.635 C 1311.02 740.812 1328.13 715.845 1334.88 707.169 C 1334.85 694.704 1342.79 688.651 1353.47 683.641 C 1361.13 675.286 1367.06 665.174 1374.74 656.653 C 1387.49 668.371 1419.5 685.513 1420.16 656.325 C 1420.44 644.219 1406.88 632.647 1399.04 624.478 C 1409.49 613.906 1418.97 601.861 1428.71 590.604 C 1432.31 582.262 1437.2 578.197 1444.25 572.863 C 1453.77 561.832 1461.93 548.903 1470.4 537.019 C 1478.16 543.658 1488.98 555.293 1499.76 555.21 C 1534.27 554.945 1515.97 524.355 1500.68 510.075 C 1510.18 497.87 1520.45 486.231 1530.95 474.872 C 1530.6 462.053 1537.6 454.22 1548.83 448.995 C 1558.77 437.586 1567.03 424.538 1576.86 412.919 C 1558.84 387.701 1583.42 366.155 1606.76 387.158 C 1613.8 380.305 1618.3 371.099 1625.41 364.151 z"/>
<path transform="translate(0,0)" fill="rgb(171,85,26)" d="M 731.297 1464.21 C 772.492 1475.65 738.106 1522.3 715.164 1488.64 C 712.04 1474.35 716.231 1465.49 731.297 1464.21 z"/>
<path transform="translate(0,0)" fill="rgb(171,85,26)" d="M 667.487 1547.1 C 660.302 1529.62 669.995 1522.06 686.808 1523.17 C 729.989 1540.07 678.28 1579.1 667.487 1547.1 z"/>
<path transform="translate(0,0)" fill="rgb(171,85,26)" d="M 834.258 1338.57 C 878.812 1347.64 842.732 1402.93 816.922 1359.55 C 814.504 1346.52 821.563 1340.4 834.258 1338.57 z"/>
<path transform="translate(0,0)" fill="rgb(171,85,26)" d="M 575.829 1668.14 C 570.673 1652.36 577.338 1638.69 594.868 1640.14 C 642.193 1661.8 583.289 1697.61 575.829 1668.14 z"/>
<path transform="translate(0,0)" fill="rgb(171,85,26)" d="M 1161.52 919.299 C 1219.11 922.449 1165.28 993.32 1147.48 939.932 C 1149.41 930.665 1154.81 925.385 1161.52 919.299 z"/>
<path transform="translate(0,0)" fill="rgb(171,85,26)" d="M 1207.93 860.025 C 1270.45 860.82 1207.63 937.396 1194.38 877.545 C 1197.69 869.511 1201.51 865.544 1207.93 860.025 z"/>
<path transform="translate(0,0)" fill="rgb(171,85,26)" d="M 981.799 1152.65 C 1023.64 1163.88 988.452 1216.12 963.186 1179.27 C 958.008 1163.06 964.847 1152.94 981.799 1152.65 z"/>
<path transform="translate(0,0)" fill="rgb(171,85,26)" d="M 1548.83 448.995 C 1596.42 454.927 1557.39 516.971 1530.95 474.872 C 1530.6 462.053 1537.6 454.22 1548.83 448.995 z"/>
<path transform="translate(0,0)" fill="rgb(171,85,26)" d="M 1074.54 1032.15 C 1117.89 1043.74 1076.17 1097.45 1054.38 1057.97 C 1052.77 1043.82 1059.86 1032.96 1074.54 1032.15 z"/>
<path transform="translate(0,0)" fill="rgb(171,85,26)" d="M 1353.47 683.641 C 1400.06 687.586 1360.35 757.441 1334.88 707.169 C 1334.85 694.704 1342.79 688.651 1353.47 683.641 z"/>
<path transform="translate(0,0)" fill="rgb(171,85,26)" d="M 1304.54 746.635 C 1360.67 753.948 1296.24 820.457 1285.98 765.572 C 1288.78 754.731 1293.76 750.35 1304.54 746.635 z"/>
<path transform="translate(0,0)" fill="rgb(171,85,26)" d="M 914.274 1238.81 C 909.232 1223.29 919.406 1211.36 935.088 1212.25 C 976.877 1230.01 942.478 1272.1 914.274 1238.81 z"/>
<path transform="translate(0,0)" fill="rgb(171,85,26)" d="M 1444.25 572.863 C 1453.31 572.911 1459.34 573.378 1467.64 577.363 C 1480.85 614.298 1435.93 626.971 1428.71 590.604 C 1432.31 582.262 1437.2 578.197 1444.25 572.863 z"/>
<path transform="translate(0,0)" fill="rgb(93,45,26)" d="M 1576.86 412.919 C 1558.84 387.701 1583.42 366.155 1606.76 387.158 C 1613.2 393.93 1618.42 399.18 1621.86 408.045 C 1608.51 443.006 1593.77 421.654 1576.86 412.919 z"/>
<path transform="translate(0,0)" fill="rgb(93,45,26)" d="M 1005.57 1125.09 C 997.594 1115.47 985.952 1106.12 985.087 1092.77 C 983.396 1066.68 1012.01 1073.62 1027.31 1090.53 C 1035.84 1098.29 1050.28 1109.07 1050.83 1121.44 C 1052.34 1155.99 1013.43 1129.06 1005.57 1125.09 z"/>
</svg>