<?xml version="1.0" encoding="UTF-8"?>
<svg version="1.1" xmlns="http://www.w3.org/2000/svg" width="1024" height="1024">
<path d="M0 0 C175.23 0 350.46 0 531 0 C531 25.74 531 51.48 531 78 C540.9 77.505 540.9 77.505 551 77 C557.14940582 76.86581238 563.28806753 76.75551679 569.4375 76.75 C570.63134308 76.74848938 570.63134308 76.74848938 571.8493042 76.74694824 C605.22224007 76.77531737 605.22224007 76.77531737 620 84 C620.95648437 84.45890625 621.91296875 84.9178125 622.8984375 85.390625 C638.34590798 93.57103353 648.89859287 106.82515604 654.22412109 123.37646484 C655.27038773 126.89044512 656.16560593 130.43039972 657 134 C657.36931641 135.546875 657.36931641 135.546875 657.74609375 137.125 C666.50552546 182.55322516 648.28005314 233.17760699 624 271 C618.27024908 279.43065601 611.96335038 287.3719736 605.015625 294.83203125 C603.09090389 296.90222547 601.26252513 299.02953109 599.4375 301.1875 C596.54118097 304.50994413 593.43161408 307.3966921 590.06640625 310.23828125 C588.7134478 311.39174866 587.386155 312.5761858 586.08984375 313.79296875 C571.05338859 327.84437675 552.9279372 337.82731006 534.5 346.6875 C533.77554688 347.0390918 533.05109375 347.39068359 532.3046875 347.75292969 C530.56518155 348.56643416 528.78517243 349.29230664 527 350 C526.34 349.67 525.68 349.34 525 349 C525.45101074 348.08565186 525.45101074 348.08565186 525.91113281 347.15283203 C533.67978876 331.24852014 540.01588663 315.20204513 545.70600891 298.45547485 C549.14988302 288.35791681 552.33082518 280.18622957 559.4375 272.125 C584.28121276 242.87848003 600.73971416 209.09036889 606 171 C606.13277344 170.08992187 606.26554688 169.17984375 606.40234375 168.2421875 C606.70179397 165.82197336 606.87978189 163.43618463 607 161 C607.03254883 160.36175293 607.06509766 159.72350586 607.09863281 159.06591797 C607.95444519 147.87706562 607.95444519 147.87706562 604.5 137.5703125 C593.80000034 126.36875036 576.33873653 126.2843108 561.86105347 125.95071411 C556.76134898 125.88332791 551.6623939 125.90759687 546.5625 125.9375 C545.04101713 125.94253426 543.51953261 125.9470937 541.99804688 125.95117188 C538.33199603 125.96200378 534.66600926 125.97915765 531 126 C531.00444122 126.99826813 531.00888245 127.99653625 531.01345825 129.02505493 C531.05456914 138.58118845 531.0842487 148.13730333 531.10362434 157.69350624 C531.11392133 162.60267538 531.12781136 167.51177138 531.15087891 172.42089844 C531.48294354 245.10021756 522.95810953 314.88515709 475 373 C474.58169922 373.51836426 474.16339844 374.03672852 473.73242188 374.57080078 C459.85184404 391.73534543 444.10048694 407.33859765 426 420 C425.37319336 420.4448877 424.74638672 420.88977539 424.10058594 421.34814453 C400.02394107 438.34602808 373.2811044 450.62417499 344.6875 457.6875 C343.93154541 457.87795898 343.17559082 458.06841797 342.39672852 458.26464844 C326.01869774 462.10725736 309.56421962 463.47080091 292.7890625 463.43359375 C290.92035742 463.43818179 289.05165401 463.44349483 287.18295288 463.44947815 C283.29556362 463.45831967 279.40838068 463.45609429 275.52099609 463.44604492 C271.60801716 463.43689488 267.69563716 463.4436965 263.78271484 463.46655273 C205.79074032 463.80356216 150.77663762 455.14404515 103 420 C102.40622559 419.56461914 101.81245117 419.12923828 101.20068359 418.68066406 C91.10541306 411.19997573 82.0153616 402.73239769 73 394 C72.01435059 393.05519775 72.01435059 393.05519775 71.00878906 392.09130859 C62.71951359 384.12875469 55.09856972 375.96943423 48.26757812 366.71630859 C47.01057906 365.01432411 45.7327368 363.32955002 44.453125 361.64453125 C37.69440372 352.60938064 32.19754415 343.00123973 27 333 C26.60925293 332.2565332 26.21850586 331.51306641 25.81591797 330.74707031 C-22.98855153 236.82457887 0 80.01284884 0 0 Z M102.1640625 55.83984375 C93.6223969 67.02734235 94.54773506 82.59735574 94.6015625 95.953125 C94.5995356 97.74762083 94.59661908 99.54211584 94.59286499 101.33660889 C94.58847513 105.07149203 94.59476692 108.80615799 94.60888672 112.54101562 C94.6260266 117.30406482 94.61608586 122.06660847 94.59816933 126.82963943 C94.58728311 130.52561189 94.59079908 134.22146614 94.5985527 137.91744232 C94.60053878 139.67314465 94.59815214 141.42885808 94.59111404 143.18454742 C94.531766 160.32971576 94.531766 160.32971576 102.19140625 175.30859375 C107.87026499 180.61949188 115.68263481 182.11559374 123.22566509 182.1398077 C124.26402183 182.14549894 125.30237857 182.15119018 126.37220067 182.15705389 C127.50642691 182.15823376 128.64065315 182.15941364 129.80924988 182.16062927 C131.0192814 182.16571709 132.22931291 182.17080491 133.47601205 182.17604691 C136.83168619 182.18903025 140.18731623 182.19752767 143.54300559 182.2040199 C146.4219956 182.21040128 149.30096795 182.22046979 152.17994692 182.23058056 C161.66248985 182.26386351 171.14504352 182.28541624 180.62762567 182.30378041 C183.0972079 182.3085777 185.5667897 182.31356073 188.03637147 182.31858563 C203.37907534 182.34955439 218.72178304 182.37623317 234.06450939 182.39300442 C237.6163299 182.39695376 241.16815034 182.40095678 244.7199707 182.4050293 C245.60273268 182.40603766 246.48549465 182.40704602 247.39500699 182.40808494 C261.69520909 182.42509196 275.99523814 182.46620414 290.29535576 182.51705229 C304.98346299 182.56884975 319.67148125 182.59794926 334.35967904 182.6052013 C342.60402296 182.60986034 350.84808328 182.62457811 359.09233665 182.6649456 C366.11330306 182.69928227 373.13393466 182.71317021 380.1549802 182.70052146 C383.73517152 182.69470333 387.31465505 182.69849714 390.89473915 182.7286911 C394.78205098 182.76120776 398.66841147 182.74687283 402.55583191 182.72825623 C404.24044086 182.75344862 404.24044086 182.75344862 405.95908231 182.77914995 C415.00161065 182.67110194 420.74213681 179.56965871 427.5859375 173.83203125 C437.58157077 162.54875089 438.16164779 150.02283374 438.1328125 135.59765625 C438.13376923 134.52108261 438.13472595 133.44450897 438.13571167 132.33531189 C438.13638926 130.06362855 438.13456447 127.79194324 438.13037109 125.52026367 C438.1250644 122.1039577 438.13030594 118.68778605 438.13671875 115.27148438 C438.14025429 105.43132938 438.09430149 95.60534399 437.56640625 85.77734375 C437.52923492 85.07352066 437.4920636 84.36969757 437.45376587 83.64454651 C436.8225773 73.47679306 434.55234688 64.02478439 428 56 C421.30636605 50.32176761 413.83013904 48.70670658 405.27241516 48.38308716 C404.40408281 48.3454715 403.53575045 48.30785584 402.641105 48.26910031 C390.97905198 47.81490384 379.3101906 47.86021644 367.64135742 47.87060547 C365.05194067 47.86924728 362.46252411 47.86746501 359.87310791 47.86529541 C353.6209945 47.86088973 347.3688932 47.86179053 341.11677935 47.86470805 C336.03061896 47.86698175 330.94446192 47.86726616 325.85830116 47.86618423 C325.12987108 47.866031 324.40144099 47.86587777 323.65093726 47.86571989 C322.17044891 47.86540012 320.68996056 47.8650759 319.20947222 47.8647473 C305.38618303 47.86190802 291.56290053 47.86515558 277.73961244 47.87054767 C265.91079624 47.87501902 254.08198985 47.87423402 242.25317383 47.86962891 C228.46599886 47.86426377 214.6788297 47.86217763 200.89165384 47.86524117 C199.41864256 47.86555967 197.94563129 47.86587404 196.47262001 47.86618423 C195.38590183 47.86641565 195.38590183 47.86641565 194.27722975 47.86665174 C189.20200679 47.86751073 184.12678756 47.86606749 179.05156517 47.86370468 C172.21007998 47.86058906 165.36861352 47.86284253 158.52713013 47.86859894 C156.02588748 47.86991433 153.52464327 47.86955332 151.02340126 47.86733627 C124.86815918 46.02867107 124.86815918 46.02867107 102.1640625 55.83984375 Z M152 229 C148.29035448 238.36243869 149.70455616 248.56178136 153.5456543 257.66186523 C154.02558838 258.76344971 154.50552246 259.86503418 155 261 C162.04724502 261.15205168 169.09406775 261.25717364 176.14257812 261.32958984 C178.54052538 261.35977516 180.93836212 261.40072843 183.3359375 261.45263672 C186.7815271 261.52537061 190.22565824 261.55943975 193.671875 261.5859375 C194.74491882 261.61690521 195.81796265 261.64787292 196.92352295 261.67977905 C199.74312865 261.68105592 202.25215969 261.63311524 205 261 C211.23864036 254.1611823 210.46979516 245.6595999 210.14501953 236.92333984 C209.83765405 232.84686637 208.71966749 229.69410053 207 226 C203.84468047 223.89645365 203.03676085 223.74086785 199.42431641 223.69360352 C198.49970612 223.67761612 197.57509583 223.66162872 196.62246704 223.64515686 C195.62556854 223.63979416 194.62867004 223.63443146 193.6015625 223.62890625 C192.5744516 223.61987778 191.5473407 223.6108493 190.48910522 223.60154724 C188.31535766 223.58703441 186.14156631 223.57815545 183.96777344 223.57446289 C180.64443216 223.56256954 177.32294913 223.51339512 174 223.46289062 C171.8880299 223.45342615 169.77604839 223.44619123 167.6640625 223.44140625 C166.67121246 223.42187393 165.67836243 223.40234161 164.65542603 223.38221741 C158.71341645 223.42101143 155.67931555 223.86743452 152 229 Z M238 227 C232.92475034 234.70037879 234.14558873 245.59653174 235.8125 254.3125 C236.64697642 258.21384634 236.64697642 258.21384634 240 260 C247.28221936 262.11657829 255.58848916 261.30373849 263.10180664 261.35009766 C265.07751192 261.36671528 267.05315568 261.39408087 269.02856445 261.43212891 C271.88524357 261.48679537 274.74052521 261.5087474 277.59765625 261.5234375 C278.92120872 261.55744156 278.92120872 261.55744156 280.27149963 261.59213257 C285.4484623 261.61551265 285.4484623 261.61551265 289.54174805 258.58642578 C294.09260439 250.51480815 292.68049726 239.78527684 290.5 231.125 C290.01690694 229.41180886 289.52347304 227.70128738 289 226 C283.5264962 224.17018701 278.71222215 223.69267687 272.9609375 223.69921875 C271.69511337 223.69279106 271.69511337 223.69279106 270.40371704 223.68623352 C268.63048191 223.68052069 266.85722335 223.67996734 265.08398438 223.68432617 C262.37589737 223.68749895 259.6688908 223.66394545 256.9609375 223.63867188 C255.2317722 223.63639979 253.50260399 223.63569496 251.7734375 223.63671875 C250.96812592 223.627509 250.16281433 223.61829926 249.33309937 223.60881042 C244.73487066 223.646604 241.73107545 224.02016852 238 227 Z M321.41650391 225.85595703 C318.10775093 230.86413845 317.64179661 235.87676312 317.6875 241.75 C317.68951416 242.44939697 317.69152832 243.14879395 317.69360352 243.86938477 C317.79710749 249.24849235 317.96927635 256.96927635 322 261 C323.54354693 261.11406568 325.09223493 261.15956926 326.63989258 261.17700195 C328.12196953 261.19625481 328.12196953 261.19625481 329.63398743 261.21589661 C330.70996689 261.22328354 331.78594635 261.23067047 332.89453125 261.23828125 C333.99343185 261.246353 335.09233246 261.25442474 336.22453308 261.26274109 C338.55567843 261.27660139 340.88684424 261.28731479 343.21801758 261.29516602 C346.78701181 261.31237709 350.35507971 261.35624675 353.92382812 261.40039062 C356.184889 261.41051707 358.44595777 261.41903332 360.70703125 261.42578125 C362.3118914 261.45204338 362.3118914 261.45204338 363.94917297 261.47883606 C369.63202606 261.55558934 369.63202606 261.55558934 374.64331055 259.22338867 C379.070143 251.96854556 377.90508104 239.97482476 376.43359375 231.88671875 C375.2305355 228.03819211 374.4079034 226.2719356 371 224 C368.82865794 223.6842591 368.82865794 223.6842591 366.40844727 223.70947266 C365.01669029 223.6903331 365.01669029 223.6903331 363.59681702 223.67080688 C362.59678146 223.66858124 361.59674591 223.66635559 360.56640625 223.6640625 C359.53692368 223.6574057 358.5074411 223.6507489 357.44676208 223.64389038 C355.26880685 223.63376213 353.09082056 223.62907341 350.9128418 223.62939453 C347.57874507 223.62502131 344.24597181 223.58870243 340.91210938 223.55078125 C338.79687953 223.54491321 336.6816434 223.54094373 334.56640625 223.5390625 C333.06938927 223.51750595 333.06938927 223.51750595 331.54212952 223.49551392 C326.11829586 223.45196787 326.11829586 223.45196787 321.41650391 225.85595703 Z M238.25 292.16796875 C233.44590716 299.20896731 234.22925072 308.76322683 235.41796875 316.83984375 C236.0331264 319.69362024 236.6898572 322.37971441 238 325 C240.78329877 325.92776626 242.52769807 326.14068311 245.40795898 326.17700195 C246.7396537 326.19625481 246.7396537 326.19625481 248.09825134 326.21589661 C249.53268333 326.22697701 249.53268333 326.22697701 250.99609375 326.23828125 C251.98118423 326.246353 252.96627472 326.25442474 253.98121643 326.26274109 C256.0650151 326.27657031 258.14883631 326.28729766 260.23266602 326.29516602 C263.42182026 326.31241519 266.60994746 326.35631606 269.79882812 326.40039062 C271.82290904 326.41051458 273.84699877 326.41903161 275.87109375 326.42578125 C277.3024894 326.45204338 277.3024894 326.45204338 278.76280212 326.47883606 C284.02180449 326.52847302 284.02180449 326.52847302 288.55493164 324.12963867 C293.15908987 317.34435868 292.68951953 309.22950209 291.65234375 301.36328125 C290.83800349 297.223148 290.06872218 294.06206552 287 291 C284.23247241 290.28791281 284.23247241 290.28791281 281 290.25 C279.7521875 290.19585938 278.504375 290.14171875 277.21875 290.0859375 C275.81258955 290.05318947 274.40632396 290.02475029 273 290 C272.24460937 289.98485352 271.48921875 289.96970703 270.7109375 289.95410156 C253.78276547 288.5504995 253.78276547 288.5504995 238.25 292.16796875 Z M343.92871094 289.07470703 C341.6808165 289.16131679 339.43435945 289.26488128 337.1875 289.375 C336.48214111 289.4056958 335.77678223 289.4363916 335.05004883 289.46801758 C326.8735067 289.8888097 326.8735067 289.8888097 320.125 293.9375 C316.33034609 300.8943655 317.15730146 311.40874589 318.56640625 319.0859375 C319.32082962 321.73938626 319.32082962 321.73938626 321 325 C323.89000592 325.96333531 325.78299955 326.14235923 328.79101562 326.17700195 C329.7621228 326.18983719 330.73322998 326.20267242 331.73376465 326.21589661 C332.78068481 326.22328354 333.82760498 326.23067047 334.90625 326.23828125 C336.52061951 326.25038887 336.52061951 326.25038887 338.16760254 326.26274109 C340.44391268 326.27657248 342.72024347 326.28729886 344.99658203 326.29516602 C348.48639719 326.3124327 351.97527814 326.35633418 355.46484375 326.40039062 C357.67447219 326.41051285 359.88410869 326.41903042 362.09375 326.42578125 C363.14067017 326.44328934 364.18759033 326.46079742 365.26623535 326.47883606 C366.72289612 326.47444771 366.72289612 326.47444771 368.20898438 326.4699707 C369.49113831 326.47877007 369.49113831 326.47877007 370.79919434 326.48774719 C373.15419228 326.18203484 373.15419228 326.18203484 374.73693848 324.15812683 C377.59223456 319.2794325 377.18360342 314.60359267 377.1875 309.125 C377.20586914 307.77728516 377.20586914 307.77728516 377.22460938 306.40234375 C377.34253607 299.91349633 377.34253607 299.91349633 375 294 C366.5385577 287.5414377 354.01451386 288.71093338 343.92871094 289.07470703 Z M153.37036133 293.85131836 C149.52011402 302.6980384 149.74787604 313.34664101 153.1484375 322.36328125 C154.00014328 324.20075422 154.00014328 324.20075422 156 326 C158.16026214 326.31949714 158.16026214 326.31949714 160.67749023 326.29052734 C161.64867294 326.30328705 162.61985565 326.31604675 163.62046814 326.32919312 C165.19859032 326.33253159 165.19859032 326.33253159 166.80859375 326.3359375 C167.88625504 326.3425943 168.96391632 326.3492511 170.07423401 326.35610962 C172.35651946 326.36624829 174.63883463 326.37092627 176.92114258 326.37060547 C180.41992856 326.37497804 183.91745309 326.41128461 187.41601562 326.44921875 C189.630204 326.45508664 191.8443984 326.45905622 194.05859375 326.4609375 C195.10865097 326.47530853 196.15870819 326.48967957 197.24058533 326.50448608 C198.70208763 326.4952562 198.70208763 326.4952562 200.19311523 326.48583984 C201.05090073 326.48868988 201.90868622 326.49153992 202.79246521 326.49447632 C205.1558828 326.18368795 205.1558828 326.18368795 206.72767639 324.14199829 C209.77110965 319.01827915 210.38680377 313.99147605 210.375 308.125 C210.37556396 307.42044678 210.37612793 306.71589355 210.37670898 305.98999023 C210.25364197 300.17490585 209.25979464 295.25979464 205 291 C203.48747647 290.87563493 201.96927124 290.81939667 200.4519043 290.79125977 C199.48387375 290.77196915 198.5158432 290.75267853 197.51847839 290.73280334 C193.0820969 290.67530855 188.64588272 290.62578296 184.20922852 290.5949707 C181.86663082 290.57337171 179.52411422 290.53924687 177.18188477 290.49243164 C173.81229447 290.42564354 170.44437638 290.39800513 167.07421875 290.37890625 C166.02618576 290.35107559 164.97815277 290.32324493 163.89836121 290.29457092 C157.89149898 290.19067519 157.89149898 290.19067519 153.37036133 293.85131836 Z M154 358 C150.71439894 363.63245896 150.79787555 370.63255144 150.75 377 C150.729375 377.68578125 150.70875 378.3715625 150.6875 379.078125 C150.65140905 383.80603978 151.38855854 387.04754806 154 391 C156.92980835 392.8471936 159.19615527 393.25486831 162.62915039 393.2746582 C163.99560448 393.28895622 163.99560448 393.28895622 165.3896637 393.30354309 C166.36580124 393.30263168 167.34193878 393.30172028 168.34765625 393.30078125 C169.86002113 393.30720894 169.86002113 393.30720894 171.40293884 393.31376648 C173.53204599 393.31950437 175.66117275 393.32001403 177.7902832 393.31567383 C181.05388597 393.31250836 184.31658705 393.33599924 187.58007812 393.36132812 C189.64843635 393.36360055 191.71679703 393.36430488 193.78515625 393.36328125 C194.76331802 393.372491 195.7414798 393.38170074 196.74928284 393.39118958 C197.65710007 393.38496078 198.5649173 393.37873199 199.50024414 393.37231445 C200.29870255 393.37294388 201.09716095 393.3735733 201.91981506 393.3742218 C204.51551025 392.90726057 205.36809816 392.026741 207 390 C211.15256863 382.25879181 211.13646906 372.59730338 209.42578125 364.171875 C207.93474617 359.25814292 207.93474617 359.25814292 204 356 C201.96449061 355.69836133 201.96449061 355.69836133 199.71557617 355.74121094 C198.85425583 355.73490662 197.99293549 355.72860229 197.10551453 355.72210693 C196.17737442 355.7261554 195.24923431 355.73020386 194.29296875 355.734375 C193.33481766 355.73246155 192.37666656 355.7305481 191.38948059 355.72857666 C189.36113218 355.72721522 187.33277504 355.73090879 185.30444336 355.73925781 C182.20992246 355.74992272 179.11598676 355.73937924 176.02148438 355.7265625 C174.04947789 355.72788479 172.07747177 355.73044862 170.10546875 355.734375 C169.18340134 355.73032654 168.26133392 355.72627808 167.31132507 355.72210693 C162.51895313 355.75680314 158.44010177 355.96331289 154 358 Z M238.44360352 357.85131836 C235.32210991 362.49739737 234.68884647 367.05254945 234.625 372.5625 C234.59664062 373.65691406 234.56828125 374.75132812 234.5390625 375.87890625 C234.85684286 381.78301362 237.14317662 387.43636803 239 393 C245.62014692 393.10139564 252.24009372 393.17146336 258.86083984 393.21972656 C261.11319461 393.23984556 263.36549713 393.26714408 265.61767578 393.30175781 C268.85462331 393.35026209 272.09088047 393.37296605 275.328125 393.390625 C276.33554749 393.41127014 277.34296997 393.43191528 278.38092041 393.45318604 C283.83103882 393.5360344 283.83103882 393.5360344 288.58886719 391.19042969 C293.36247105 383.78060723 293.02659195 373.37906055 291.4296875 365.01171875 C290.06350691 359.61083516 290.06350691 359.61083516 286 356 C283.91006796 355.68472948 283.91006796 355.68472948 281.59204102 355.70947266 C280.2603463 355.6903331 280.2603463 355.6903331 278.90174866 355.67080688 C277.94546066 355.66858124 276.98917267 355.66635559 276.00390625 355.6640625 C275.01881577 355.6574057 274.03372528 355.6507489 273.01878357 355.64389038 C270.93498605 355.63376339 268.85115609 355.62907338 266.76733398 355.62939453 C263.57807041 355.62502135 260.39019053 355.58870179 257.20117188 355.55078125 C255.17708807 355.54491315 253.15299769 355.54094371 251.12890625 355.5390625 C249.6975106 355.51750595 249.6975106 355.51750595 248.23719788 355.49551392 C242.98405622 355.470754 242.98405622 355.470754 238.44360352 357.85131836 Z M321.40405273 357.82397461 C316.34856536 365.65905703 316.9245647 377.10473058 318.53515625 385.93359375 C319.43724385 389.12233562 319.43724385 389.12233562 321 392 C323.95235711 392.98405956 326.67262142 393.12184779 329.76855469 393.11352539 C330.70922791 393.11344986 331.64990112 393.11337433 332.61907959 393.11329651 C333.62650208 393.10813522 334.63392456 393.10297394 335.671875 393.09765625 C337.22820648 393.09553383 337.22820648 393.09553383 338.815979 393.09336853 C342.12734876 393.08777447 345.43865071 393.07522303 348.75 393.0625 C350.99609277 393.05748423 353.24218661 393.05292146 355.48828125 393.04882812 C360.9922106 393.03780699 366.49610046 393.02107474 372 393 C372.81997301 391.39895712 373.63553922 389.79565675 374.44921875 388.19140625 C374.90385498 387.29881104 375.35849121 386.40621582 375.8269043 385.48657227 C377.19955559 382.5770086 377.79495126 380.21243033 378 377 C378.05027344 376.32453125 378.10054687 375.6490625 378.15234375 374.953125 C378.41523079 368.85414566 377.6431803 362.33122424 373.73338318 357.40367126 C371.48016316 355.57904286 370.1950552 355.61459498 367.31665039 355.59594727 C366.36879166 355.58326309 365.42093292 355.57057892 364.4443512 355.55751038 C362.9114872 355.56191383 362.9114872 355.56191383 361.34765625 355.56640625 C360.29597763 355.5611644 359.24429901 355.55592255 358.16075134 355.55052185 C355.93570845 355.54409589 353.71063161 355.54544603 351.4855957 355.55395508 C348.07897465 355.56245888 344.67403316 355.53372011 341.26757812 355.50195312 C339.10677134 355.50034092 336.94596157 355.50091901 334.78515625 355.50390625 C333.2553286 355.48705528 333.2553286 355.48705528 331.69459534 355.46986389 C326.19748651 355.443616 326.19748651 355.443616 321.40405273 357.82397461 Z " fill="#FFFFFF" transform="translate(236,313)"/>
<path d="M0 0 C2.07421875 1.79296875 2.07421875 1.79296875 3.6875 4.1875 C4.22761719 4.96480469 4.76773438 5.74210938 5.32421875 6.54296875 C6.15373047 7.75919922 6.15373047 7.75919922 7 9 C8.32636083 10.67222083 9.658865 12.33960473 11 14 C3.28070938 15.83172317 -4.45176107 17.51035645 -12.23608398 19.04101562 C-49.10734499 25.04336136 -49.10734499 25.04336136 -79.3515625 44.71875 C-80.72379483 47.1731493 -81.16570279 49.25288391 -80.5546875 52.0078125 C-76.35614038 61.95572144 -65.43986648 66.34879335 -56.05859375 70.2109375 C8.72730602 94.69080817 84.71291284 95.6872684 153 99 C154.05088806 99.05220703 155.10177612 99.10441406 156.18450928 99.15820312 C244.21207093 103.52111954 335.48778726 103.93821625 423 92 C424.19272522 91.83791046 424.19272522 91.83791046 425.4095459 91.67254639 C490.59979904 86.13171593 490.59979904 86.13171593 546.125 57.9375 C548.54916505 54.23861339 548.54916505 54.23861339 549 50 C546.53454229 42.74059675 540.64466455 39.42998264 534.11376953 36.02490234 C513.65084028 26.10305238 491.38506364 20.96084604 469.13134766 17.00341797 C467.84663574 16.77025879 466.56192383 16.53709961 465.23828125 16.296875 C463.5063855 15.99281738 463.5063855 15.99281738 461.73950195 15.68261719 C459 15 459 15 457 13 C461.455 6.565 461.455 6.565 466 0 C468.78630859 0.70962891 468.78630859 0.70962891 471.62890625 1.43359375 C474.27318312 2.10259048 476.91767874 2.77066372 479.5625 3.4375 C480.26694244 3.6154007 480.97138489 3.79330139 481.69717407 3.97659302 C490.37182569 6.1622947 499.05856474 8.26710214 507.7890625 10.21875 C562.27148228 22.40669703 562.27148228 22.40669703 582 34 C583.27037109 34.71542969 583.27037109 34.71542969 584.56640625 35.4453125 C591.89271651 39.9048057 600.80833425 47.06789319 604.1875 55.1875 C606.08676314 64.09942703 604.94277725 69.37796032 600 77 C575.80458038 108.43499399 528.11221996 119.04168064 491 127 C490.01 127 489.02 127 488 127 C487.8865625 127.71800781 487.773125 128.43601562 487.65625 129.17578125 C485.43793466 138.72245976 478.74843193 146.23995286 472 153 C471.38511719 153.62648438 470.77023437 154.25296875 470.13671875 154.8984375 C450.45390647 173.52756604 420.03942465 178.41022699 394.4375 183 C393.03109756 183.25429779 393.03109756 183.25429779 391.59628296 183.51373291 C359.97090171 189.19339593 328.10754994 192.77333472 296 194 C295.26964539 194.02815796 294.53929077 194.05631592 293.7868042 194.08532715 C207.24306125 197.35095298 113.37197933 199.08393359 -12.01171875 151 C-15.32171114 147.78005329 -18.28796135 144.2879646 -21.25 140.75 C-31.18768363 128.91111149 -40.33780304 125.13307967 -55 121 C-121.68504316 101.79655851 -121.68504316 101.79655851 -138.7421875 75.29296875 C-141.34912106 69.58468319 -141.63071419 64.05414849 -140 58 C-131.65574511 38.92030076 -109.90544261 28.7802226 -91.56591797 21.52050781 C-27.82087353 -2.79194126 -27.82087353 -2.79194126 0 0 Z " fill="#FFFFFF" transform="translate(267,704)"/>
<path d="M0 0 C20.00571374 -0.06373198 20.00571374 -0.06373198 25.01245117 3.02246094 C26.38811 5.7737786 26.13965922 7.98177146 26.1418457 11.06103516 C26.14499786 12.32930145 26.14815002 13.59756775 26.15139771 14.90426636 C26.14960748 16.2952274 26.14755642 17.68618813 26.14526367 19.07714844 C26.14593716 20.49960344 26.14690757 21.92205833 26.14816284 23.34451294 C26.14963864 26.32880751 26.14748967 29.31307218 26.14282227 32.29736328 C26.13713539 36.11955596 26.1403981 39.94167826 26.14639473 43.76386833 C26.15001235 46.70297778 26.14885605 49.64207062 26.14626694 52.58118057 C26.14560046 53.99016452 26.14641635 55.39914999 26.14874649 56.80813217 C26.1512915 58.7804537 26.14672347 60.75278052 26.1418457 62.72509766 C26.14105011 63.84713593 26.14025452 64.96917419 26.13943481 66.12521362 C25.93663436 70.75229043 25.93663436 70.75229043 25.01245117 73.02246094 C21.34729411 74.24417996 17.96482084 74.17794918 14.14794922 74.18359375 C13.34760254 74.18855865 12.54725586 74.19352356 11.72265625 74.19863892 C9.07315207 74.21325158 6.42370779 74.22006127 3.77416992 74.22558594 C1.93195087 74.23133841 0.08973184 74.23709613 -1.75248718 74.24285889 C-5.61689533 74.25336652 -9.4812827 74.25921065 -13.34570312 74.26269531 C-18.29213224 74.26817758 -23.23828575 74.29220089 -28.18462849 74.32066727 C-31.99109189 74.33931204 -35.79748917 74.34450024 -39.60399437 74.34603119 C-41.42721246 74.34905441 -43.25042947 74.3570718 -45.07360268 74.37021637 C-47.62756803 74.38731436 -50.18086355 74.38538751 -52.73486328 74.37890625 C-53.48468979 74.38812103 -54.2345163 74.39733582 -55.00706482 74.40682983 C-59.7166465 74.36948275 -63.04233637 73.63656541 -66.98754883 71.02246094 C-67.84057617 67.76416016 -67.84057617 67.76416016 -67.98754883 64.02246094 C-68.06054199 62.91016113 -68.13353516 61.79786133 -68.20874023 60.65185547 C-68.35171405 56.81726559 -68.49316507 52.98285519 -68.61254883 49.14746094 C-68.63467438 48.45504303 -68.65679993 47.76262512 -68.67959595 47.04922485 C-69.81685943 10.19302894 -69.81685943 10.19302894 -62.98754883 1.02246094 C-60.52581787 0.38322449 -60.52581787 0.38322449 -57.56079102 0.36303711 C-56.44822937 0.34339401 -55.33566772 0.32375092 -54.18939209 0.30351257 C-52.98325256 0.30744522 -51.77711304 0.31137787 -50.53442383 0.31542969 C-49.28687317 0.30030838 -48.03932251 0.28518707 -46.75396729 0.26960754 C-43.42533906 0.23383858 -40.0980089 0.2195684 -36.76928711 0.21557617 C-33.43817889 0.20636979 -30.10755229 0.16851205 -26.77661133 0.13378906 C-17.851106 0.04879522 -8.92571811 0.04255074 0 0 Z " fill="#FFFFFF" transform="translate(615.987548828125,389.9775390625)"/>
<path d="M0 0 C-0.176521 0.56920166 -0.35304199 1.13840332 -0.53491211 1.72485352 C-1.34122379 4.33575491 -2.13940984 6.94907432 -2.9375 9.5625 C-3.21529297 10.45775391 -3.49308594 11.35300781 -3.77929688 12.27539062 C-12.27202095 40.2092903 -2.90455689 66.5286054 8.25695801 92.1477356 C25.1126147 130.9056566 25.1126147 130.9056566 18.4375 149.625 C12.61334683 161.35476302 1.70908666 172.27576825 -10.6171875 177.00390625 C-17.40604305 179.19798565 -17.40604305 179.19798565 -21 178 C-20.44570313 176.865625 -19.89140625 175.73125 -19.3203125 174.5625 C-18.58815015 173.04185511 -17.85640133 171.52101107 -17.125 170 C-16.76019531 169.25621094 -16.39539063 168.51242187 -16.01953125 167.74609375 C-10.96529285 157.17814073 -8.93104248 146.26733915 -12.76953125 134.9140625 C-16.78687789 125.39996537 -21.94252158 116.42001736 -27.625 107.8125 C-40.01374733 88.99211345 -47.30364173 67.44253538 -43.3515625 44.7578125 C-39.93609742 28.33700669 -30.58852966 15.79268194 -17.21875 5.953125 C-4.25652473 -2.12826236 -4.25652473 -2.12826236 0 0 Z " fill="#FFFFFF" transform="translate(504,102)"/>
<path d="M0 0 C-0.42152344 1.2065625 -0.84304688 2.413125 -1.27734375 3.65625 C-1.83113558 5.27069398 -2.38449816 6.88528525 -2.9375 8.5 C-3.21529297 9.29148437 -3.49308594 10.08296875 -3.77929688 10.8984375 C-11.29131824 32.9819702 -7.35697663 58.55546239 2.52758789 79.1887207 C4.14264828 82.36663101 5.78620525 85.52828207 7.4375 88.6875 C16.78011161 106.9355268 24.88490947 126.71689055 20.19921875 147.5625 C15.18872638 160.7860675 5.25557491 168.09864349 -7 174 C-11.54656425 175.91264814 -15.04329842 177 -20 177 C-20 176.01 -20 175.02 -20 174 C-19.34 174 -18.68 174 -18 174 C-9.55708952 153.50594451 -9.55708952 153.50594451 -12.75537109 132.12646484 C-14.93102054 127.29182222 -17.43179361 122.63529934 -20 118 C-20.34401855 117.37770508 -20.68803711 116.75541016 -21.04248047 116.11425781 C-23.89875198 110.98367497 -26.84676781 105.90929312 -29.8828125 100.8828125 C-41.32303807 81.81576988 -45.83487864 62.72808095 -40.96484375 40.734375 C-37.28420157 26.48865061 -30.36222195 13.56900782 -18 5 C-6.34441395 -1.75353927 -6.34441395 -1.75353927 0 0 Z " fill="#FFFFFF" transform="translate(417,104)"/>
<path d="M0 0 C-0.43460844 4.02012806 -1.50563385 7.49733964 -2.9375 11.25 C-12.03841587 35.90520845 -4.81426088 60.24372523 5.68920898 83.22143555 C6.56122198 85.11147378 7.43442689 87.00096257 8.30883789 88.88989258 C16.80464796 107.31012604 24.35506843 127.02763488 18.5625 147.5 C16.06718048 153.87496824 11.87621756 158.31164342 7 163 C6.40574219 163.63679687 5.81148437 164.27359375 5.19921875 164.9296875 C0.95656767 169.16293137 -3.8411868 171.57515072 -9.25 174 C-9.94810791 174.31541748 -10.64621582 174.63083496 -11.36547852 174.95581055 C-15.0462487 176.51287174 -17.19713091 177.23064779 -21 176 C-20.29423828 174.56720703 -20.29423828 174.56720703 -19.57421875 173.10546875 C-12.60769357 158.74901779 -7.76667621 145.18734852 -12.8125 129.1875 C-15.67977087 121.91342929 -19.86013521 115.64096888 -24.21484375 109.1796875 C-30.39229618 100.00742639 -35.93091733 90.2960122 -40 80 C-40.3196875 79.20078125 -40.639375 78.4015625 -40.96875 77.578125 C-46.17196879 62.06482454 -43.80059596 43.30870381 -36.875 28.8125 C-33.42353689 22.27288568 -29.28387526 17.13658954 -24 12 C-23.36320313 11.34257813 -22.72640625 10.68515625 -22.0703125 10.0078125 C-16.14439453 4.2786055 -8.3504803 0 0 0 Z " fill="#FFFFFF" transform="translate(592,103)"/>
<path d="" fill="#FFFFFF" transform="translate(0,0)"/>
</svg>
